<?xml version="1.0" encoding="UTF-8" standalone="no"?>
<svg
   xmlns:dc="http://purl.org/dc/elements/1.1/"
   xmlns:cc="http://creativecommons.org/ns#"
   xmlns:rdf="http://www.w3.org/1999/02/22-rdf-syntax-ns#"
   xmlns:svg="http://www.w3.org/2000/svg"
   xmlns="http://www.w3.org/2000/svg"
   xmlns:sodipodi="http://sodipodi.sourceforge.net/DTD/sodipodi-0.dtd"
   xmlns:inkscape="http://www.inkscape.org/namespaces/inkscape"
   sodipodi:docname="tyrannosaurus, t-rex, dinosaur, fossil, skull, mesozoic,prehistoric.svg"
   inkscape:version="1.0 (4035a4fb49, 2020-05-01)"
   id="svg8"
   version="1.1"
   viewBox="0 0 793.74996 793.75002"
   height="3000"
   width="3000">
  <defs
     id="defs2">
    <clipPath
       clipPathUnits="userSpaceOnUse"
       id="clipPath16">
      <path
         d="M 0,192 H 192 V 0 H 0 Z"
         id="path18"
         inkscape:connector-curvature="0" />
    </clipPath>
    <clipPath
       clipPathUnits="userSpaceOnUse"
       id="clipPath26">
      <path
         d="M -4.88281e-4,192 H 192 V -4.88281e-4 H -4.88281e-4 Z"
         id="path28"
         inkscape:connector-curvature="0" />
    </clipPath>
    <clipPath
       clipPathUnits="userSpaceOnUse"
       id="clipPath34">
      <path
         d="M -4.88281e-4,192 H 192 V -4.88281e-4 H -4.88281e-4 Z"
         id="path36"
         inkscape:connector-curvature="0" />
    </clipPath>
    <clipPath
       clipPathUnits="userSpaceOnUse"
       id="clipPath38">
      <path
         d="M 0,192 H 192 V 0 H 0 Z"
         id="path40"
         inkscape:connector-curvature="0" />
    </clipPath>
    <clipPath
       clipPathUnits="userSpaceOnUse"
       id="clipPath42">
      <path
         d="M 0,192 H 192 V 0 H 0 Z"
         id="path44"
         inkscape:connector-curvature="0" />
    </clipPath>
    <clipPath
       clipPathUnits="userSpaceOnUse"
       id="clipPath116">
      <path
         d="M 0,192 H 192 V -4.88281e-4 H 0 Z"
         id="path118"
         inkscape:connector-curvature="0" />
    </clipPath>
    <clipPath
       clipPathUnits="userSpaceOnUse"
       id="clipPath120">
      <path
         d="M 0,192 H 192 V 4.88281e-4 H 0 Z"
         id="path122"
         inkscape:connector-curvature="0" />
    </clipPath>
    <clipPath
       clipPathUnits="userSpaceOnUse"
       id="clipPath124">
      <path
         d="M 192,192 H 0 V 0 h 192 z"
         id="path126"
         inkscape:connector-curvature="0" />
    </clipPath>
    <pattern
       id="EMFhbasepattern"
       patternUnits="userSpaceOnUse"
       width="6"
       height="6"
       x="0"
       y="0" />
    <pattern
       id="EMFhbasepattern-6"
       patternUnits="userSpaceOnUse"
       width="6"
       height="6"
       x="0"
       y="0" />
    <pattern
       id="EMFhbasepattern-3"
       patternUnits="userSpaceOnUse"
       width="6"
       height="6"
       x="0"
       y="0" />
    <pattern
       id="EMFhbasepattern-4"
       patternUnits="userSpaceOnUse"
       width="6"
       height="6"
       x="0"
       y="0" />
    <pattern
       id="EMFhbasepattern-0"
       patternUnits="userSpaceOnUse"
       width="6"
       height="6"
       x="0"
       y="0" />
    <pattern
       id="EMFhbasepattern-2"
       patternUnits="userSpaceOnUse"
       width="6"
       height="6"
       x="0"
       y="0" />
    <pattern
       id="EMFhbasepattern-7"
       patternUnits="userSpaceOnUse"
       width="6"
       height="6"
       x="0"
       y="0" />
    <pattern
       id="EMFhbasepattern-8"
       patternUnits="userSpaceOnUse"
       width="6"
       height="6"
       x="0"
       y="0" />
    <pattern
       id="EMFhbasepattern-9"
       patternUnits="userSpaceOnUse"
       width="6"
       height="6"
       x="0"
       y="0" />
    <pattern
       id="EMFhbasepattern-36"
       patternUnits="userSpaceOnUse"
       width="6"
       height="6"
       x="0"
       y="0" />
    <pattern
       id="EMFhbasepattern-95"
       patternUnits="userSpaceOnUse"
       width="6"
       height="6"
       x="0"
       y="0" />
    <pattern
       id="EMFhbasepattern-1"
       patternUnits="userSpaceOnUse"
       width="6"
       height="6"
       x="0"
       y="0" />
  </defs>
  <sodipodi:namedview
     inkscape:snap-global="true"
     inkscape:snap-midpoints="true"
     inkscape:snap-smooth-nodes="true"
     inkscape:snap-bbox="true"
     inkscape:window-maximized="1"
     inkscape:window-y="-8"
     inkscape:window-x="-8"
     inkscape:window-height="706"
     inkscape:window-width="1366"
     units="px"
     showgrid="false"
     inkscape:document-rotation="0"
     inkscape:current-layer="layer1"
     inkscape:document-units="px"
     inkscape:cy="952.76523"
     inkscape:cx="1039.3672"
     inkscape:zoom="0.13385184"
     inkscape:pageshadow="2"
     inkscape:pageopacity="0.0"
     borderopacity="1.0"
     bordercolor="#666666"
     pagecolor="#ffffff"
     id="base" />
  <metadata
     id="metadata5">
    <rdf:RDF>
      <cc:Work
         rdf:about="">
        <dc:format>image/svg+xml</dc:format>
        <dc:type
           rdf:resource="http://purl.org/dc/dcmitype/StillImage" />
        <dc:title></dc:title>
      </cc:Work>
    </rdf:RDF>
  </metadata>
  <g
     id="layer1"
     inkscape:groupmode="layer"
     inkscape:label="Layer 1">
    <path
       d="m 556.13144,152.03284 c -13.02885,2.79 -25.0169,8.33068 -34.90465,18.46494 -35.78678,36.67834 -294.86396,70.97795 -298.02773,71.51888 -85.51008,14.61885 -187.051756,39.18733 -205.588533,79.92252 -18.53666001,40.7352 -30.876445,98.36455 7.642148,110.48449 5.344981,1.68188 12.118652,3.40319 19.882207,5.05852 2.184902,31.48886 44.393144,60.87216 37.913613,52.47726 -5.593243,-6.84099 -11.734219,-32.12091 -13.209024,-48.10629 9.183223,1.3428 19.165137,2.49534 29.787305,3.39627 6.193944,29.29243 43.231174,54.86473 37.131974,46.96237 -5.29067,-6.47057 -11.06297,-29.43246 -12.92279,-45.43061 9.57386,0.3727 19.52314,0.4565 29.67257,0.2801 8.49381,27.53637 41.89987,50.4348 36.08455,42.90035 -5.11377,-6.25435 -10.6739,-27.91453 -12.72088,-43.80474 9.6051,-0.6188 19.33518,-1.5487 29.10909,-2.80969 8.09888,27.87756 42.18064,51.27041 36.3113,43.66599 -5.50283,-6.73043 -11.52087,-31.28449 -13.11937,-47.30109 9.36973,-1.75641 18.71268,-3.87381 27.96088,-6.37184 6.13359,29.33198 43.25601,54.96838 37.15019,47.05752 -6.30082,-7.70642 -13.28894,-38.79761 -13.52179,-53.64591 83.61714,-21.83274 124.78675,-7.98909 158.00706,-12.55899 35.24291,-4.84822 61.52491,35.06274 89.34293,42.40395 27.8182,7.34103 -65.19375,6.71953 -104.70234,29.99179 -29.17037,17.18256 -62.0673,47.95465 -97.54078,63.20262 -2.49234,-13.38275 -3.80115,-27.75891 -1.95064,-33.65754 2.20295,-7.78031 -13.63735,15.3784 -17.02155,40.13004 -6.48041,1.57881 -13.03816,2.5224 -19.66365,2.61826 -3.76728,0.053 -8.21672,0.012 -12.97142,-0.075 -3.28711,-14.8585 -5.36538,-32.9601 -3.2212,-39.79535 2.17377,-7.67736 -13.22068,14.77195 -16.88191,39.149 -10.471,-0.4078 -21.71385,-0.9352 -33.72017,-1.57763 -3.4401,-15.05743 -5.68665,-33.94547 -3.48575,-40.96155 2.19492,-7.75195 -13.51892,15.21006 -16.9817,39.8591 -11.2688,-0.6427 -22.53533,-1.3013 -33.51884,-1.9323 -3.57375,-15.2058 -5.96537,-34.80207 -3.71467,-41.97687 2.22375,-7.85338 -13.94156,15.81457 -17.11746,40.82642 -12.28459,-0.66398 -23.73352,-1.23908 -33.25254,-1.57576 -2.32693,-12.98924 -3.51105,-26.60561 -1.72266,-32.30654 1.95733,-6.91313 -10.34191,10.61296 -15.49195,31.96453 -6.662637,0.023 -11.208984,0.31 -12.209765,1.04156 -7.455293,5.44822 2.295585,54.87036 33.742855,70.92464 31.44732,16.05428 126.38249,26.55855 184.44784,15.8376 58.06553,-10.72073 153.06487,10.649 193.02129,4.89099 39.95625,-5.75818 157.81935,-41.33068 197.78983,-77.40358 38.99291,-35.19059 51.13916,2.8139 80.12824,-11.7709 28.98885,-14.58492 25.86996,-66.5298 8.38436,-99.79904 -17.48543,-33.26942 -31.38639,-44.41266 -24.52529,-94.82766 6.86121,-50.415 29.03707,-21.5063 22.7417,-75.60404 -6.2952,-54.09779 -99.4016,-128.08089 -138.5311,-130.20656 -24.45603,-1.32861 -53.02511,-6.449 -78.36727,-2.55914 -1.9009,0.2912 -3.78322,0.6315 -5.64451,1.03025 z m -167.41881,91.25548 c 10.23785,-1.499 20.67416,4.55391 32.84291,4.6687 13.261,0.1254 -8.97275,18.27451 8.71981,50.51941 11.12853,20.28176 -7.22924,25.24775 -21.74702,36.00164 -14.51795,10.75406 -21.80355,5.24812 -42.84169,5.50699 -21.03821,0.259 -33.07477,-1.21775 -54.06674,-7.88226 -20.9918,-6.66434 6.59197,-40.16813 20.7699,-59.84491 14.17641,-19.67455 33.17771,-14.3605 46.09336,-24.45468 3.42392,-2.67604 6.81855,-4.01549 10.22947,-4.51489 z M 84.476483,302.21307 c 3.721933,-0.8077 5.761054,-0.4043 4.049531,2.12683 -4.56416,6.74795 -21.085371,32.43141 -36.730898,30.07008 -3.099433,-0.4682 -2.584511,0.2971 -5.192343,-7.84172 -2.608418,-8.1392 5.312343,-8.28597 14.83998,-14.44664 5.954765,-3.85043 16.830468,-8.56248 23.03373,-9.90855 z M 496.95691,227.68862 c 5.84408,-0.9503 11.77066,-0.9627 17.01123,-0.6777 16.7697,0.9115 26.38939,10.20117 27.01242,21.74526 0.7289,13.50591 5.04721,27.67751 -8.57625,34.11046 -13.62369,6.43284 -19.58244,15.23262 -22.65662,36.9143 -3.0743,21.68162 8.24484,31.9425 -2.28522,43.6551 -10.53011,11.71277 -32.02951,-19.05662 -32.77336,-37.23563 -0.7439,-18.17888 -12.67154,-45.94927 -6.9723,-71.94047 3.9181,-17.86892 16.38322,-24.48058 29.2401,-26.57085 z m -247.49537,52.53761 c 5.65816,-1.23281 11.17963,-0.4254 16.38445,3.40424 10.6599,7.84371 5.99842,18.07418 0.6989,36.20883 -5.29934,18.13471 -29.66602,15.99252 -52.25742,15.46476 -22.59141,-0.5273 -8.23078,-22.36523 6.64447,-36.48158 9.29701,-8.82298 19.09887,-16.54113 28.52918,-18.59625 z m 386.38413,-68.65078 c 1.59744,-0.3451 3.7913,0.023 6.76195,1.31356 23.76369,10.27769 94.00787,28.52121 71.39215,45.67851 -22.61608,17.15725 -47.23061,14.99877 -45.78545,27.8567 1.44586,12.85764 -16.56293,27.04594 1.07906,46.80229 17.64223,19.75652 25.87852,23.00947 34.03746,47.36238 8.15848,24.35291 19.0033,32.04404 14.49504,35.81572 -4.50856,3.77168 -48.18398,43.98076 -61.85771,-1.77838 -13.67391,-45.75914 -27.43694,-77.67668 -19.247,-97.92603 8.19053,-20.24942 -22.12195,-46.54541 -7.07777,-56.36402 13.16355,-8.59114 -4.97707,-46.34268 6.20168,-48.76073 z"
       style="fill:#000000;fill-opacity:1;stroke:none;stroke-width:0.264584px;stroke-linecap:butt;stroke-linejoin:miter;stroke-opacity:1"
       id="path533" />
  </g>
</svg>
